<svg xmlns="http://www.w3.org/2000/svg" style="display:none">
  <symbol id="icon-close" viewBox="0 0 12 12">
    <path d="M11.3137 9.89949L7.07107 5.65685L11.3137 1.41421L9.8995 -4.64916e-06L5.65686 4.24264L1.41422 -4.64916e-06L6.19888e-06 1.41421L4.24265 5.65685L6.19888e-06 9.89949L1.41422 11.3137L5.65686 7.07106L9.8995 11.3137L11.3137 9.89949Z" fill="#5F5F5F"/>
  </symbol>
  <symbol id="icon-comments" viewBox="0 0 15 15">
    <path d="M15 1.5C15 0.675 14.325 0 13.5 0H1.5C0.675 0 0 0.675 0 1.5V10.5C0 11.325 0.675 12 1.5 12H12L15 15V1.5Z" fill="currentColor"/>
  </symbol>
  <symbol id="icon-date" viewBox="0 0 18 20">
    <path d="M4 9H6V11H4V9ZM4 13H6V15H4V13ZM8 9H10V11H8V9ZM8 13H10V15H8V13ZM12 9H14V11H12V9ZM12 13H14V15H12V13Z" fill="#5F5F5F"/>
<path d="M2 20H16C17.103 20 18 19.103 18 18V4C18 2.897 17.103 2 16 2H14V0H12V2H6V0H4V2H2C0.897 2 0 2.897 0 4V18C0 19.103 0.897 20 2 20ZM16 6L16.001 18H2V6H16Z" fill="#5F5F5F"/>
  </symbol>
  <symbol id="icon-grid" viewBox="0 0 22 22">
    <rect width="6" height="6" fill="currentColor"/>
<rect x="8" width="6" height="6" fill="currentColor"/>
<rect x="16" width="6" height="6" fill="currentColor"/>
<rect y="8" width="6" height="6" fill="currentColor"/>
<rect y="16" width="6" height="6" fill="currentColor"/>
<rect x="8" y="8" width="6" height="6" fill="currentColor"/>
<rect x="8" y="16" width="6" height="6" fill="currentColor"/>
<rect x="16" y="8" width="6" height="6" fill="currentColor"/>
<rect x="16" y="16" width="6" height="6" fill="currentColor"/>
  </symbol>
  <symbol id="icon-heart" viewBox="0 0 15 14">
    <path d="M5.95536e-08 4.05069C-9.22365e-05 3.51247 0.107097 2.97963 0.315302 2.48331C0.523508 1.98698 0.828553 1.53714 1.21261 1.16007C1.59667 0.782992 2.05203 0.486251 2.55209 0.287187C3.05215 0.0881223 3.58687 -0.00927256 4.125 0.000694555C4.76172 -0.00268682 5.39189 0.129297 5.97374 0.387898C6.55559 0.646498 7.07584 1.02581 7.5 1.50069C7.92416 1.02581 8.44441 0.646498 9.02626 0.387898C9.60811 0.129297 10.2383 -0.00268682 10.875 0.000694555C11.4131 -0.00927256 11.9479 0.0881223 12.4479 0.287187C12.948 0.486251 13.4033 0.782992 13.7874 1.16007C14.1714 1.53714 14.4765 1.98698 14.6847 2.48331C14.8929 2.97963 15.0001 3.51247 15 4.05069C15 8.06769 10.2157 11.1007 7.5 13.5007C4.79025 11.0804 5.95536e-08 8.07069 5.95536e-08 4.05069Z" fill="currentColor"/>
  </symbol>
  <symbol id="icon-list" viewBox="0 0 24 22">
    <rect width="6" height="6" fill="currentColor"/>
<rect y="8" width="6" height="6" fill="currentColor"/>
<rect y="16" width="6" height="6" fill="currentColor"/>
<rect x="9" y="10" width="15" height="2" fill="currentColor"/>
<rect x="9" y="18" width="15" height="2" fill="currentColor"/>
<rect x="9" y="2" width="15" height="2" fill="currentColor"/>
  </symbol>
</svg>
